<svg xmlns="http://www.w3.org/2000/svg" xmlns:xlink="http://www.w3.org/1999/xlink" viewBox="0 0 347.75 92"><defs><style>.cls-1{fill:#d1d3d4;}.cls-2{fill:#f1f2f2;}.cls-3{opacity:0.49;fill:url(#linear-gradient);}.cls-4{opacity:0.5;fill:url(#linear-gradient-2);}.cls-5{fill:#fff;}</style><linearGradient id="linear-gradient" x1="25.69" y1="59.55" x2="25.69" y2="32.07" gradientUnits="userSpaceOnUse"><stop offset="0" stop-color="#6d6e71"/><stop offset="0.26" stop-color="#707174"/><stop offset="0.44" stop-color="#797a7d"/><stop offset="0.61" stop-color="#898a8d"/><stop offset="0.76" stop-color="#9fa1a3"/><stop offset="0.9" stop-color="#bcbdbf"/><stop offset="0.99" stop-color="#d1d3d4"/></linearGradient><linearGradient id="linear-gradient-2" x1="6969.69" y1="7003.55" x2="6969.69" y2="6976.07" gradientTransform="matrix(0, -1, -1, 0, 7035.99, 7035.99)" xlink:href="#linear-gradient"/></defs><g id="Layer_2" data-name="Layer 2"><g id="Layer_1-2" data-name="Layer 1"><path class="cls-1" d="M15.12,61.12H30.88V76.88a15.12,15.12,0,1,0,30.24,0v-46h-46a15.12,15.12,0,0,0,0,30.24Z"/><path class="cls-2" d="M0,46A15.12,15.12,0,0,0,15.12,61.11h46v0L30.89,30.88H15.12A15.12,15.12,0,0,0,0,46Z"/><path class="cls-1" d="M76.87,30.88H61.11V15.12a15.12,15.12,0,1,0-30.23,0v46h46a15.12,15.12,0,0,0,0-30.24Z"/><path class="cls-3" d="M30.88,30.88V61.12C30.2,57.6,28.41,38.94,20.5,30.88Z"/><path class="cls-4" d="M61.11,61.12H30.88c3.51.67,22.17,2.46,30.23,10.37Z"/><path class="cls-2" d="M46,0A15.12,15.12,0,0,0,30.88,15.12v46h0L61.11,30.89V15.12A15.12,15.12,0,0,0,46,0Z"/><path class="cls-5" d="M134.84,42v-7.2H115.71V42h-4.14V27.71a3.56,3.56,0,0,1,3.57-3.59h20.25A3.59,3.59,0,0,1,139,27.71V42Zm0-13.64a.8.8,0,0,0-.79-.8H116.48a.78.78,0,0,0-.77.8v3h19.13Z"/><path class="cls-5" d="M169.81,42V30.39L161.2,42h-4.13l-8.61-11.48V42h-4.14V24.12h4.14l10.83,14.44,10.52-14.44H174V42Z"/><path class="cls-5" d="M178.38,42V24.12h28v3.45H182.52v3.76h23.26v3.48H182.52v3.72h23.81V42Z"/><path class="cls-5" d="M236.22,42V40.75c0-4-1.73-5.94-5.26-5.94H216.4V42h-4.13V24.12h24.14A3.57,3.57,0,0,1,240,27.71v3.51a3.09,3.09,0,0,1-2.19,2.93c1.78,1.26,2.55,3.42,2.55,6.22V42Zm-.36-13.64a.78.78,0,0,0-.79-.8H216.4v3.76h18.67a.76.76,0,0,0,.79-.77Z"/><path class="cls-5" d="M276.14,42l-9.07-6.63L258.24,42H254.1V24.12h4.14V37.55l17.9-13.43h5.92L270.3,32.94,282.63,42Z"/><path class="cls-5" d="M310.67,42v-7.2H291.54V42H287.4V27.71A3.56,3.56,0,0,1,291,24.12h20.26a3.59,3.59,0,0,1,3.59,3.59V42Zm0-13.64a.8.8,0,0,0-.8-.8H292.31a.78.78,0,0,0-.77.8v3h19.13Z"/><path class="cls-5" d="M343.61,42,323.94,28.58V42H319.8V24.12h4.14l19.67,13.43V24.12h4.14V42Z"/><path class="cls-5" d="M147.12,77.85v-11H117.83v11h-6.34V56a5.46,5.46,0,0,1,5.46-5.5h31a5.49,5.49,0,0,1,5.5,5.5v21.9Zm0-20.9a1.21,1.21,0,0,0-1.22-1.21H119A1.17,1.17,0,0,0,117.83,57v4.54h29.29Z"/><path class="cls-5" d="M197.61,66.81h-31v11h-6.34V50.45h37.35a5.46,5.46,0,0,1,5.46,5.5v5.37A5.48,5.48,0,0,1,197.61,66.81ZM196.73,57a1.18,1.18,0,0,0-1.18-1.21h-29v5.75h29a1.15,1.15,0,0,0,1.18-1.18Z"/><path class="cls-5" d="M232,55.74V77.85h-6.33V55.74H208.22V50.45h41.13v5.29Z"/><path class="cls-5" d="M255.18,77.85V50.45H298v5.29H261.52v5.75h35.63v5.32H261.52v5.71H298v5.33Z"/><path class="cls-5" d="M337.81,77.85,323.92,67.7,310.4,77.85h-6.33V50.45h6.33V71l27.41-20.56h9.06L328.87,64l18.88,13.89Z"/><rect class="cls-5" x="245.04" y="24.12" width="4.14" height="3.15"/><rect class="cls-5" x="245.04" y="29.42" width="4.14" height="12.59"/></g></g></svg>