<svg xmlns="http://www.w3.org/2000/svg" xmlns:xlink="http://www.w3.org/1999/xlink" viewBox="0 0 479.51 103.44"><defs><style>.cls-1{fill:#fff;}.cls-2{fill:url(#New_Gradient_Swatch_1);}</style><linearGradient id="New_Gradient_Swatch_1" x1="218.69" y1="-163.77" x2="479.51" y2="-163.77" gradientTransform="translate(0 215.49)" gradientUnits="userSpaceOnUse"><stop offset="0" stop-color="#0160c9"/><stop offset="1" stop-color="#1a92ff"/></linearGradient></defs><g id="Layer_2" data-name="Layer 2"><g id="Layer_1-2" data-name="Layer 1"><rect class="cls-1" y="0.39" width="11.8" height="80.35"/><path class="cls-1" d="M72.84,29.59a12.59,12.59,0,0,0-5.19-5.54Q64.11,22,58,22a30.18,30.18,0,0,0-9,1.36,32,32,0,0,0-8.26,3.95A34.68,34.68,0,0,0,36,31.16l-2-8h-9V80.74h11.8V42.1a20.79,20.79,0,0,1,2.83-2.89,24.52,24.52,0,0,1,7-4.13,20.84,20.84,0,0,1,7.67-1.53,10.45,10.45,0,0,1,6.55,2.12c1.84,1.42,2.77,4.17,2.77,8.26V80.74h11.8V46.41a82,82,0,0,0-.48-9A24.19,24.19,0,0,0,72.84,29.59Z"/><path class="cls-1" d="M135.69,29.59a12.59,12.59,0,0,0-5.19-5.54Q127,22,120.82,22a30.18,30.18,0,0,0-9,1.36,32,32,0,0,0-8.26,3.95,35.37,35.37,0,0,0-4.78,3.87l-1.95-8h-9V80.74H99.7V42.1a21.45,21.45,0,0,1,2.84-2.89,24.52,24.52,0,0,1,7-4.13,20.84,20.84,0,0,1,7.67-1.53,10.42,10.42,0,0,1,6.54,2.12q2.78,2.13,2.78,8.26V80.74h11.79V46.41a82.06,82.06,0,0,0-.47-9A24.19,24.19,0,0,0,135.69,29.59Z"/><circle class="cls-1" cx="178.34" cy="51.95" r="31.17"/><path class="cls-2" d="M262.1,25.53A25.76,25.76,0,0,0,248,21.73a23.69,23.69,0,0,0-18.62,8.1l-1.69-6.91h-9v80.52h11.88V75.28a23.25,23.25,0,0,0,3.8,3A24.73,24.73,0,0,0,248,82.06a26.08,26.08,0,0,0,14.07-3.74,25.11,25.11,0,0,0,9.32-10.51A35.37,35.37,0,0,0,274.75,52a35.7,35.7,0,0,0-3.33-15.92A25.58,25.58,0,0,0,262.1,25.53Zm-4,40.86a15.51,15.51,0,0,1-23.63,0Q230,60.93,230,51.9t4.52-14.49a15.46,15.46,0,0,1,23.63.06Q262.64,43,262.63,52T258.12,66.39Z"/><path class="cls-2" d="M319.71,24.46q-4.87-2.73-12.35-2.73a46,46,0,0,0-10.21,1.19,46.5,46.5,0,0,0-10.1,3.56l3.56,9.15a38.92,38.92,0,0,1,15.56-3.45q6.3,0,8.79,3.09A10.56,10.56,0,0,1,317.45,42V47l-.41-.34q-5.06-3.73-13.36-3.74a24,24,0,0,0-11.52,2.61,18.71,18.71,0,0,0-7.48,7.07,19.6,19.6,0,0,0-2.62,10.15,20.94,20.94,0,0,0,2.56,10.63A16.74,16.74,0,0,0,292,80.16a26.33,26.33,0,0,0,11.64,2.38A23.18,23.18,0,0,0,316.5,79a16.5,16.5,0,0,0,3.05-2.52l1.23,4.36h8.55V42A21.87,21.87,0,0,0,327,31.77,17.63,17.63,0,0,0,319.71,24.46Zm-5.46,45.07a15.8,15.8,0,0,1-16.87,0,8.09,8.09,0,0,1-3.2-6.83,8,8,0,0,1,3.2-6.88,16.14,16.14,0,0,1,16.87,0,8,8,0,0,1,3.2,6.88A8.09,8.09,0,0,1,314.25,69.53Z"/><path class="cls-2" d="M387.21,29.39A12.71,12.71,0,0,0,382,23.81c-2.37-1.38-5.62-2.08-9.74-2.08a30.26,30.26,0,0,0-9,1.37,32.08,32.08,0,0,0-8.31,4A35.08,35.08,0,0,0,350.1,31l-2-8h-9v58H351V42a21.14,21.14,0,0,1,2.85-2.92,24.56,24.56,0,0,1,7-4.15,21,21,0,0,1,7.72-1.55,10.48,10.48,0,0,1,6.59,2.14c1.86,1.42,2.79,4.2,2.79,8.31V80.87h11.88V46.32a85.78,85.78,0,0,0-.47-9A24.76,24.76,0,0,0,387.21,29.39Z"/><path class="cls-2" d="M441.22,25.53a31.11,31.11,0,0,0-29.8,0,26.21,26.21,0,0,0-10,10.57A33.68,33.68,0,0,0,397.88,52a33.37,33.37,0,0,0,3.56,15.79,25.74,25.74,0,0,0,10,10.51,28.93,28.93,0,0,0,14.84,3.74q9.62,0,16-3.74A28,28,0,0,0,452.62,67.1l-8.9-5.58a29.89,29.89,0,0,1-6.65,7.36q-3.81,3-10.81,3-7.61,0-11.88-4.69c-2.69-3-4.1-6.91-4.24-11.82h44.38c.08-.47.14-1,.18-1.6s.06-1.17.06-1.72A33.8,33.8,0,0,0,451.2,36.1,26.28,26.28,0,0,0,441.22,25.53ZM414.5,36q4.39-4.68,11.76-4.69,8.31,0,12.35,5.82a21.91,21.91,0,0,1,3.34,8H410.34A16.18,16.18,0,0,1,414.5,36Z"/><path class="cls-2" d="M475.3,69.47q-1.85-1.31-1.84-5V0H461.82V68.64a16.17,16.17,0,0,0,1.36,7,9.78,9.78,0,0,0,9.21,5.82,23,23,0,0,0,3.8-.3,16.82,16.82,0,0,0,3.32-.89v-9.5A7,7,0,0,1,475.3,69.47Z"/></g></g></svg>