<svg width="126" height="32" viewBox="0 0 126 32" fill="none" xmlns="http://www.w3.org/2000/svg">
<g clip-path="url(#clip0_5_2)">
<path d="M54.8999 31.0355H51.1917V14.1732C51.1917 12.419 49.7409 10.9884 47.9517 10.9884H36.4377V31.0355H32.7295V7.34351H47.9517C51.7804 7.34351 54.8999 10.4052 54.8999 14.1732V31.0355Z" fill="#144166"/>
<path d="M75.499 15.1527V14.2278C75.499 12.4054 73.9925 10.9201 72.1384 10.9201H65.4544C63.6003 10.9201 62.0892 12.4054 62.0892 14.2278V24.0645C62.0892 25.8916 63.6003 27.3769 65.4544 27.3769H77.3067L74.1084 31.0218H65.4544C61.5561 31.0218 58.381 27.9008 58.381 24.0645V14.2278C58.381 10.3961 61.5561 7.27516 65.4544 7.27516H72.1384C76.0367 7.27516 79.2072 10.3961 79.2072 14.2278V15.1527C79.2072 18.9207 76.0876 21.9869 72.2543 21.9869H63.8923L67.0906 18.342H72.2543C74.0435 18.342 75.499 16.9114 75.499 15.1527Z" fill="#144166"/>
<path d="M105.429 31.04H100.534L92.3574 21.7272L84.1854 31.04H79.2906L89.9099 18.9389L79.6568 7.25238H84.5516L92.3574 16.146L100.163 7.25238H105.063L94.8094 18.9389L105.429 31.04Z" fill="#144166"/>
<path d="M105.429 31.04H100.534L92.3574 21.7272L84.1854 31.04H79.2906L89.9099 18.9389L79.6568 7.25238H84.5516L92.3574 16.146L100.163 7.25238H105.063L94.8094 18.9389L105.429 31.04Z" fill="#144166"/>
<path d="M117.318 20.0324H108.882V24.0691C108.882 25.8916 110.393 27.3769 112.247 27.3769H122.292V14.3053C122.292 12.4828 120.785 10.9975 118.927 10.9975H107.042L110.24 7.35262H118.927C122.83 7.35262 126 10.4736 126 14.3053V31.0218H112.247C108.344 31.0218 105.174 27.9008 105.174 24.0691V16.3874H120.493" fill="#144166"/>
<path d="M4.54718 0.0400085H0L24.0801 23.7092V19.1849L4.54718 0.0400085Z" fill="#309CE5"/>
<path d="M24.0801 5.46638V14.6789L9.14532 0.0400085H18.5642C21.6095 0.0400085 24.0801 2.46843 24.0801 5.46638Z" fill="#309CE5"/>
<path d="M22.2353 31.0355H26.6851L2.60498 7.36629V11.7949L22.2353 31.0355Z" fill="#309CE5"/>
<path d="M17.7066 31.0354H8.12556C5.07557 31.0354 2.60498 28.607 2.60498 25.6091V16.2371L17.7066 31.0354Z" fill="#309CE5"/>
</g>
<defs>
<clipPath id="clip0_5_2">
<rect width="126" height="31" fill="white" transform="translate(0 0.0400085)"/>
</clipPath>
</defs>
</svg>
