<svg width="201" height="46" viewBox="0 0 201 46" fill="none" xmlns="http://www.w3.org/2000/svg">
<g clip-path="url(#clip0_5_4)">
<path d="M30.4944 0H0V32.4242H5.06752C5.41721 32.4242 5.76277 32.3485 6.08059 32.2023C6.39841 32.056 6.68098 31.8428 6.909 31.577L15.2438 21.8825C15.3818 21.721 15.5531 21.5913 15.7458 21.5025C15.9386 21.4136 16.1482 21.3676 16.3603 21.3676C16.5725 21.3676 16.7821 21.4136 16.9749 21.5025C17.1676 21.5913 17.3389 21.721 17.4769 21.8825L26.54 32.4242H31.8755C32.085 32.4245 32.2902 32.3644 32.4665 32.2511C32.6429 32.1378 32.7831 31.9761 32.8703 31.7852C32.9576 31.5943 32.9883 31.3823 32.9587 31.1744C32.9291 30.9665 32.8405 30.7715 32.7035 30.6127L19.0332 14.7123C18.7017 14.3275 18.2913 14.0188 17.8301 13.8072C17.3689 13.5956 16.8676 13.486 16.3603 13.486C15.8531 13.486 15.3518 13.5956 14.8906 13.8072C14.4293 14.0188 14.019 14.3275 13.6874 14.7123L6.33525 23.2635V6.35053H30.5322C39.7122 6.35053 47.2773 13.7514 47.3014 22.9535C47.3055 25.1431 46.879 27.3121 46.0464 29.3365C45.2138 31.3608 43.9914 33.2008 42.4491 34.7514C40.9067 36.3019 39.0747 37.5326 37.0576 38.373C35.0406 39.2135 32.8781 39.6472 30.6937 39.6495H0C0 41.3337 0.667462 42.949 1.85555 44.14C3.04364 45.3309 4.65504 46 6.33525 46H30.6937C36.7787 45.9927 42.6122 43.5654 46.9136 39.251C51.2151 34.9366 53.633 29.0876 53.6367 22.9879C53.6298 10.3317 43.1065 0 30.4944 0Z" fill="#1A6CE7"/>
<path d="M75.7173 2.52092C74.2658 1.7672 72.6481 1.39288 71.0139 1.43266H65.4276V18.5212H71.0139C72.6481 18.561 74.2658 18.1867 75.7173 17.433C77.0139 16.7388 78.0864 15.6888 78.8093 14.4058C79.5578 13.0483 79.9369 11.5174 79.9087 9.96661C79.9383 8.41897 79.5591 6.89101 78.8093 5.53777C78.084 4.25928 77.0118 3.21319 75.7173 2.52092ZM76.0608 13.0282C75.604 13.8743 74.918 14.5739 74.0819 15.0463C73.159 15.5468 72.1213 15.7962 71.0723 15.7696H68.554V4.18432H71.0723C72.1201 4.15769 73.1569 4.40328 74.0819 4.89721C74.9207 5.35714 75.6109 6.04778 76.0711 6.88777C76.5616 7.83311 76.8051 8.88762 76.7789 9.95283C76.8075 11.0216 76.5639 12.08 76.0711 13.0282H76.0608Z" fill="#3D4871"/>
<path d="M97.1486 3.68152C96.3326 2.88216 95.3686 2.25041 94.3108 1.82182C92.0439 0.935712 89.5277 0.935712 87.2609 1.82182C86.2047 2.24725 85.241 2.87415 84.4231 3.66774C83.6112 4.46298 82.9695 5.41563 82.5369 6.46762C82.0767 7.57614 81.8431 8.76595 81.8498 9.96661C81.8398 11.1665 82.0736 12.3558 82.5369 13.4622C82.9755 14.5173 83.6217 15.473 84.4368 16.2724C85.2484 17.0707 86.2077 17.7024 87.2609 18.1321C89.5194 19.0183 92.0282 19.0183 94.2867 18.1321C95.3409 17.7024 96.3014 17.0707 97.1142 16.2724C97.9283 15.4721 98.5743 14.5166 99.0141 13.4622C99.4774 12.3558 99.7112 11.1665 99.7012 9.96661C99.7087 8.76923 99.475 7.58266 99.0141 6.47795C98.5851 5.43013 97.9507 4.47923 97.1486 3.68152ZM96.1419 12.3498C95.8677 13.0542 95.4547 13.6959 94.9276 14.2367C94.4005 14.7775 93.7701 15.2063 93.0739 15.4975C91.6067 16.0944 89.965 16.0944 88.4977 15.4975C87.8009 15.2056 87.1701 14.7757 86.6429 14.2337C86.1158 13.6916 85.7031 13.0485 85.4297 12.3429C85.1364 11.5831 84.9895 10.7744 84.9968 9.95972C84.9886 9.1472 85.1355 8.34059 85.4297 7.58344C85.7094 6.87384 86.1263 6.22663 86.6562 5.67897C87.1787 5.14084 87.8053 4.71542 88.4977 4.42884C89.9685 3.85022 91.6031 3.85022 93.0739 4.42884C93.7663 4.71542 94.393 5.14084 94.9154 5.67897C95.4434 6.2256 95.86 6.87015 96.1419 7.57655C96.4362 8.33371 96.5831 9.14031 96.5748 9.95284C96.5839 10.7721 96.4369 11.5857 96.1419 12.3498Z" fill="#3D4871"/>
<path d="M115.914 1.43266H112.001L105.593 9.02987V1.43266H102.457V18.5212H105.593V13.7273L107.881 10.9963L112.458 18.5212H116.12L110.008 8.46852L115.914 1.43266Z" fill="#3D4871"/>
<path d="M116.622 4.18432H121.04V18.5212H124.173V4.18432H128.523V1.43266H116.622V4.18432Z" fill="#3D4871"/>
<path d="M144.495 3.68151C143.68 2.88069 142.716 2.24874 141.657 1.82182C139.391 0.935595 136.876 0.935595 134.61 1.82182C133.554 2.24639 132.59 2.87339 131.773 3.66774C130.959 4.46191 130.316 5.41478 129.883 6.46762C129.423 7.57613 129.189 8.76595 129.196 9.96661C129.184 11.1666 129.418 12.3563 129.883 13.4622C130.322 14.5173 130.968 15.473 131.783 16.2724C132.594 17.0707 133.554 17.7024 134.607 18.1321C136.865 19.0183 139.374 19.0183 141.633 18.1321C142.687 17.7016 143.647 17.07 144.46 16.2724C145.273 15.4713 145.919 14.516 146.36 13.4622C146.823 12.3558 147.057 11.1665 147.047 9.96661C147.055 8.76923 146.821 7.58265 146.36 6.47795C145.932 5.4296 145.298 4.4785 144.495 3.68151ZM143.488 12.3498C143.215 13.0544 142.803 13.6965 142.277 14.2374C141.75 14.7784 141.12 15.207 140.423 15.4975C138.956 16.0944 137.315 16.0944 135.847 15.4975C135.15 15.2069 134.518 14.7776 133.991 14.2353C133.463 13.6931 133.051 13.0493 132.779 12.3429C132.485 11.5833 132.337 10.7746 132.343 9.95972C132.336 9.14697 132.484 8.34036 132.779 7.58344C133.054 6.87758 133.465 6.23283 133.989 5.68586C134.512 5.14734 135.14 4.7219 135.833 4.43573C137.304 3.8571 138.939 3.8571 140.41 4.43573C141.102 4.72231 141.729 5.14772 142.251 5.68586C142.784 6.22837 143.204 6.87088 143.488 7.57655C143.785 8.333 143.933 9.13994 143.924 9.95283C143.934 10.7725 143.786 11.5864 143.488 12.3498Z" fill="#3D4871"/>
<path d="M161.26 9.83919C161.833 8.94877 162.124 7.90558 162.095 6.84645C162.13 5.81156 161.867 4.78846 161.339 3.89848C160.835 3.09636 160.108 2.45952 159.247 2.06633C158.276 1.62882 157.22 1.41354 156.155 1.4361H149.792V18.5212H152.926V12.212H155.839L159.412 18.5212H162.937L159.007 11.6851C159.926 11.3102 160.711 10.6671 161.26 9.83919ZM158.639 8.1999C158.411 8.59391 158.078 8.91605 157.677 9.12975C157.225 9.36443 156.722 9.48278 156.213 9.47413H152.939V4.18432H156.213C156.722 4.17406 157.226 4.2925 157.677 4.52871C158.077 4.7376 158.41 5.05504 158.639 5.44479C158.875 5.86458 158.994 6.34052 158.983 6.82234C158.993 7.30403 158.874 7.77966 158.639 8.1999Z" fill="#3D4871"/>
<path d="M169.142 15.3115H166.122V18.5247H169.142V15.3115Z" fill="#3D4871"/>
<path d="M178.091 1.43266L172.21 18.5212H175.559L176.796 14.8741H183.386L184.598 18.5212H187.986L182.118 1.43266H178.091ZM177.703 12.1087L180.108 4.9282L182.489 12.1087H177.703Z" fill="#3D4871"/>
<path d="M192.555 15.7696L200.794 3.88815V1.43266H189.051V4.18432H196.812L188.573 16.0692V18.5212H201V15.7696H192.555Z" fill="#3D4871"/>
<path d="M195.019 24.8476H71.4056C68.1041 24.8476 65.4276 27.5305 65.4276 30.84V40.0111C65.4276 43.3206 68.1041 46.0034 71.4056 46.0034H195.019C198.32 46.0034 200.997 43.3206 200.997 40.0111V30.84C200.997 27.5305 198.32 24.8476 195.019 24.8476Z" fill="#1A6CE7"/>
<path d="M83.8116 29.614H81.1215L76.717 34.8384V29.614H74.5629V41.3611H76.717V38.0653L78.2905 36.1884L81.4376 41.3611H83.9524L79.7507 34.4526L83.8116 29.614Z" fill="white"/>
<path d="M92.7613 29.614H90.6072V41.3611H97.7807V39.4704H92.7613V29.614Z" fill="white"/>
<path d="M106.682 25.9256H104.528V28.1021H106.682V25.9256Z" fill="white"/>
<path d="M106.669 29.614H104.514V41.3611H106.669V29.614Z" fill="white"/>
<path d="M121.534 37.1699L115.952 29.614H114.268V41.3611H116.422V33.6812L121.974 41.3611H123.675V29.614H121.534V37.1699Z" fill="white"/>
<path d="M133.456 25.9256H131.302V28.1021H133.456V25.9256Z" fill="white"/>
<path d="M133.442 29.614H131.288V41.3611H133.442V29.614Z" fill="white"/>
<path d="M150.29 29.614H147.6L143.196 34.8384V29.614H141.042V41.3611H143.196V38.0653L144.769 36.1884L147.916 41.3611H150.431L146.23 34.4526L150.29 29.614Z" fill="white"/>
<path d="M160.185 29.6174L156.141 41.3611H158.453L159.306 38.8539H163.834L164.668 41.3611H166.998L162.954 29.6174H160.185ZM159.917 36.9495L161.57 32.0281L163.191 36.946L159.917 36.9495Z" fill="white"/>
<path d="M178.967 34.8659L176.813 34.1771C176.446 34.0781 176.113 33.879 175.851 33.602C175.665 33.3782 175.556 33.0999 175.54 32.8087C175.525 32.5176 175.604 32.2292 175.765 31.9868C175.925 31.7583 176.147 31.5803 176.405 31.4737C176.702 31.3476 177.023 31.2854 177.346 31.2912C177.916 31.2822 178.475 31.4533 178.943 31.7802C179.418 32.1159 179.777 32.5895 179.974 33.1371L181.743 32.3725C181.539 31.7972 181.215 31.2724 180.792 30.8331C180.36 30.3903 179.843 30.039 179.273 29.8C178.659 29.5467 178 29.4202 177.336 29.428C176.633 29.4147 175.938 29.5631 175.302 29.8619C174.735 30.128 174.253 30.5449 173.907 31.0673C173.568 31.5995 173.394 32.2201 173.405 32.8512C173.386 33.5826 173.63 34.2965 174.092 34.8625C174.641 35.4777 175.358 35.9182 176.154 36.1298L178.401 36.8565C178.747 36.9553 179.063 37.1387 179.321 37.3903C179.532 37.6236 179.643 37.9301 179.631 38.2444C179.637 38.5151 179.556 38.7806 179.4 39.002C179.234 39.2233 179.011 39.3948 178.754 39.4979C178.443 39.6246 178.108 39.6856 177.772 39.677C177.123 39.6855 176.49 39.4838 175.965 39.1019C175.414 38.7014 174.989 38.1519 174.738 37.5177L172.945 38.2891C173.154 38.9303 173.499 39.518 173.958 40.0111C174.417 40.503 174.975 40.8926 175.594 41.1544C176.245 41.4326 176.947 41.5721 177.655 41.5643C178.392 41.5825 179.123 41.4317 179.792 41.1235C180.37 40.8557 180.864 40.4369 181.225 39.9112C181.576 39.3837 181.757 38.7611 181.743 38.1273C181.769 37.4022 181.524 36.6937 181.056 36.1402C180.488 35.534 179.766 35.0937 178.967 34.8659Z" fill="white"/>
<path d="M191.188 29.614H189.034V41.3611H191.188V29.614Z" fill="white"/>
</g>
<defs>
<clipPath id="clip0_5_4">
<rect width="201" height="46" fill="white"/>
</clipPath>
</defs>
</svg>
