<svg width="90" height="20" viewBox="0 0 90 20" fill="none" xmlns="http://www.w3.org/2000/svg">
<path d="M13.6542 0.0010376H0V14.0975H2.26904C2.42562 14.0975 2.58035 14.0645 2.72265 14.001C2.86496 13.9374 2.99149 13.8447 3.09358 13.7291L6.82557 9.51444C6.88738 9.44423 6.96407 9.38788 7.05037 9.34924C7.13667 9.3106 7.23054 9.29059 7.32553 9.29059C7.42052 9.29059 7.51439 9.3106 7.60069 9.34924C7.68699 9.38788 7.76367 9.44423 7.82549 9.51444L11.8836 14.0975H14.2726C14.3664 14.0976 14.4583 14.0715 14.5373 14.0222C14.6162 13.973 14.679 13.9027 14.7181 13.8197C14.7571 13.7367 14.7709 13.6445 14.7576 13.5541C14.7444 13.4637 14.7047 13.379 14.6434 13.3099L8.52235 6.39721C8.37389 6.22991 8.19015 6.0957 7.98363 6.00371C7.77711 5.91171 7.55265 5.8641 7.32553 5.8641C7.09841 5.8641 6.87395 5.91171 6.66742 6.00371C6.4609 6.0957 6.27716 6.22991 6.12871 6.39721L2.83668 10.1148V2.76193H13.6711C17.7816 2.76193 21.169 5.97948 21.1797 9.98008C21.1815 10.932 20.9906 11.875 20.6178 12.7551C20.245 13.6351 19.6977 14.4351 19.0071 15.1092C18.3165 15.7833 17.4961 16.3183 16.593 16.6837C15.6898 17.0491 14.7215 17.2377 13.7434 17.2386H0C0 17.9709 0.298864 18.6731 0.830845 19.1909C1.36283 19.7087 2.08435 19.9995 2.83668 19.9995H13.7434C16.4681 19.9964 19.0801 18.9411 21.0061 17.0654C22.9321 15.1897 24.0148 12.6469 24.0164 9.99505C24.0133 4.49273 19.3014 0.0010376 13.6542 0.0010376Z" fill="#3D4871"/>
<path d="M33.9033 1.09701C33.2534 0.769328 32.529 0.606594 31.7973 0.623885H29.296V8.05314H31.7973C32.529 8.07043 33.2534 7.9077 33.9033 7.58002C34.4838 7.27824 34.9641 6.82174 35.2878 6.26395C35.6229 5.67378 35.7926 5.00821 35.78 4.33402C35.7933 3.66119 35.6235 2.9969 35.2878 2.40858C34.963 1.85276 34.4829 1.39797 33.9033 1.09701ZM34.0571 5.66506C33.8525 6.03291 33.5454 6.33704 33.171 6.54244C32.7578 6.76003 32.2931 6.86844 31.8234 6.85686H30.6958V1.82017H31.8234C32.2926 1.8086 32.7568 1.91536 33.171 2.1301C33.5466 2.33005 33.8556 2.63031 34.0617 2.9955C34.2813 3.40648 34.3903 3.86493 34.3786 4.32803C34.3914 4.79267 34.2823 5.25283 34.0617 5.66506H34.0571Z" fill="#3D4871"/>
<path d="M43.4994 1.60158C43.134 1.25406 42.7023 0.979405 42.2287 0.793073C41.2137 0.407838 40.087 0.407838 39.072 0.793073C38.5991 0.97803 38.1676 1.25058 37.8014 1.59559C37.4379 1.94132 37.1505 2.35548 36.9568 2.81284C36.7508 3.29476 36.6462 3.81203 36.6492 4.33402C36.6447 4.85566 36.7494 5.37272 36.9568 5.85371C37.1532 6.31243 37.4425 6.72795 37.8075 7.07545C38.1709 7.42253 38.6005 7.69718 39.072 7.88396C40.0833 8.26925 41.2067 8.26925 42.2179 7.88396C42.69 7.69718 43.12 7.42254 43.484 7.07545C43.8485 6.72755 44.1377 6.31214 44.3347 5.85371C44.5421 5.37272 44.6468 4.85566 44.6423 4.33402C44.6457 3.81346 44.541 3.2976 44.3347 2.81733C44.1426 2.36179 43.8585 1.94838 43.4994 1.60158ZM43.0486 5.37011C42.9259 5.67633 42.7409 5.95534 42.5049 6.19046C42.2689 6.42558 41.9866 6.612 41.6749 6.73857C41.0179 6.99809 40.2828 6.99809 39.6258 6.73857C39.3139 6.61166 39.0314 6.42478 38.7954 6.18913C38.5593 5.95347 38.3745 5.67389 38.2521 5.36711C38.1208 5.03678 38.055 4.68521 38.0583 4.33103C38.0546 3.97778 38.1204 3.62711 38.2521 3.29794C38.3774 2.98944 38.564 2.70806 38.8013 2.46997C39.0352 2.23602 39.3158 2.05107 39.6258 1.92648C40.2844 1.67492 41.0163 1.67492 41.6749 1.92648C41.9849 2.05107 42.2655 2.23602 42.4994 2.46997C42.7358 2.70762 42.9224 2.98783 43.0486 3.29494C43.1804 3.62412 43.2462 3.97479 43.2425 4.32803C43.2465 4.68423 43.1807 5.0379 43.0486 5.37011Z" fill="#3D4871"/>
<path d="M51.9017 0.623885H50.1496L47.2806 3.92678V0.623885H45.8761V8.05314H47.2806V5.969L48.3051 4.78169L50.3542 8.05314H51.994L49.2573 3.68273L51.9017 0.623885Z" fill="#3D4871"/>
<path d="M52.2186 1.82017H54.1969V8.05314H55.5999V1.82017H57.5474V0.623885H52.2186V1.82017Z" fill="#3D4871"/>
<path d="M64.6991 1.60158C64.3343 1.25342 63.9025 0.978679 63.4284 0.793072C62.414 0.407788 61.2878 0.407788 60.2733 0.793072C59.8002 0.977655 59.3686 1.25025 59.0027 1.59559C58.6382 1.94085 58.3502 2.35511 58.1566 2.81284C57.9505 3.29476 57.8459 3.81203 57.8489 4.33402C57.8437 4.85572 57.9484 5.37293 58.1566 5.85371C58.353 6.31243 58.6423 6.72794 59.0073 7.07545C59.3707 7.42253 59.8002 7.69718 60.2718 7.88396C61.283 8.26925 62.4064 8.26925 63.4177 7.88396C63.8895 7.6968 64.3195 7.42221 64.6837 7.07545C65.0478 6.72719 65.337 6.31187 65.5344 5.85371C65.7419 5.37272 65.8465 4.85566 65.8421 4.33402C65.8454 3.81346 65.7408 3.2976 65.5344 2.81733C65.3428 2.36156 65.0587 1.94807 64.6991 1.60158ZM64.2484 5.37011C64.1262 5.67645 63.9417 5.9556 63.7059 6.19077C63.4701 6.42594 63.1879 6.61227 62.8762 6.73857C62.2192 6.99809 61.4841 6.99809 60.8271 6.73857C60.5148 6.61225 60.232 6.42558 59.9959 6.18985C59.7597 5.95413 59.5752 5.67424 59.4534 5.36711C59.3215 5.03688 59.2552 4.68531 59.258 4.33103C59.2548 3.97768 59.3211 3.62701 59.4534 3.29794C59.5766 2.99107 59.7606 2.71076 59.9949 2.47296C60.2293 2.23884 60.5104 2.05388 60.821 1.92947C61.4795 1.67791 62.2115 1.67791 62.87 1.92947C63.18 2.05406 63.4606 2.23901 63.6946 2.47296C63.9329 2.70882 64.1211 2.98815 64.2484 3.29494C64.3814 3.62381 64.4477 3.97463 64.4437 4.32803C64.4481 4.68439 64.3817 5.0382 64.2484 5.37011Z" fill="#3D4871"/>
<path d="M72.2061 4.27862C72.4627 3.89152 72.5929 3.43799 72.5799 2.97753C72.5954 2.52761 72.4779 2.08282 72.2415 1.6959C72.0157 1.34718 71.6901 1.07031 71.3047 0.899376C70.8698 0.709168 70.3969 0.615573 69.9202 0.625383H67.0712V8.05314H68.4742V5.31022H69.7787L71.3785 8.05314H72.9568L71.197 5.08114C71.6084 4.91816 71.96 4.63856 72.2061 4.27862ZM71.0324 3.56594C70.9305 3.73724 70.7812 3.87729 70.6017 3.9702C70.3994 4.07223 70.1741 4.12368 69.9463 4.11992H68.4803V1.82017H69.9463C70.1742 1.81571 70.3996 1.8672 70.6017 1.9699C70.7808 2.06071 70.93 2.19872 71.0324 2.36816C71.1381 2.55066 71.1913 2.75758 71.1862 2.96705C71.1908 3.17646 71.1376 3.38325 71.0324 3.56594Z" fill="#3D4871"/>
<path d="M75.7351 6.65772H74.3829V8.05464H75.7351V6.65772Z" fill="#3D4871"/>
<path d="M79.7424 0.623885L77.1088 8.05314H78.6087L79.1625 6.46758H82.113L82.656 8.05314H84.1728L81.5453 0.623885H79.7424ZM79.5686 5.2653L80.6454 2.14357L81.7115 5.2653H79.5686Z" fill="#3D4871"/>
<path d="M86.2188 6.85686L89.9077 1.69141V0.623885H84.6497V1.82017H88.1248L84.4359 6.98711V8.05314H90V6.85686H86.2188Z" fill="#3D4871"/>
<path d="M87.3218 10.8036H31.9727C30.4944 10.8036 29.296 11.9699 29.296 13.4087V17.3959C29.296 18.8347 30.4944 20.001 31.9727 20.001H87.3218C88.8001 20.001 89.9985 18.8347 89.9985 17.3959V13.4087C89.9985 11.9699 88.8001 10.8036 87.3218 10.8036Z" fill="#3D4871"/>
<path d="M37.5276 12.8757H36.323L34.3509 15.147V12.8757H33.3864V17.9828H34.3509V16.5499L35.0555 15.7339L36.4646 17.9828H37.5906L35.7093 14.9793L37.5276 12.8757Z" fill="white"/>
<path d="M41.5349 12.8757H40.5704V17.9828H43.7824V17.1608H41.5349V12.8757Z" fill="white"/>
<path d="M47.7682 11.2722H46.8037V12.2184H47.7682V11.2722Z" fill="white"/>
<path d="M47.7621 12.8757H46.7975V17.9828H47.7621V12.8757Z" fill="white"/>
<path d="M54.4184 16.1606L51.9186 12.8757H51.1649V17.9828H52.1294V14.644L54.6153 17.9828H55.3768V12.8757H54.4184V16.1606Z" fill="white"/>
<path d="M59.7564 11.2722H58.7919V12.2184H59.7564V11.2722Z" fill="white"/>
<path d="M59.7503 12.8757H58.7858V17.9828H59.7503V12.8757Z" fill="white"/>
<path d="M67.2943 12.8757H66.0897L64.1176 15.147V12.8757H63.1531V17.9828H64.1176V16.5499L64.8222 15.7339L66.2313 17.9828H67.3573L65.4759 14.9793L67.2943 12.8757Z" fill="white"/>
<path d="M71.7246 12.8772L69.914 17.9828H70.9493L71.3308 16.8928H73.3584L73.7322 17.9828H74.7752L72.9645 12.8772H71.7246ZM71.6047 16.0648L72.3446 13.9253L73.0707 16.0633L71.6047 16.0648Z" fill="white"/>
<path d="M80.1347 15.159L79.1702 14.8596C79.0056 14.8165 78.8565 14.73 78.7394 14.6095C78.656 14.5122 78.6071 14.3912 78.6002 14.2646C78.5933 14.1381 78.6286 14.0127 78.701 13.9073C78.7726 13.808 78.8719 13.7306 78.9871 13.6842C79.1204 13.6294 79.264 13.6024 79.4086 13.6049C79.6641 13.601 79.9143 13.6754 80.1239 13.8175C80.3363 13.9634 80.4974 14.1693 80.5854 14.4074L81.3777 14.075C81.2863 13.8249 81.141 13.5967 80.9515 13.4057C80.7581 13.2132 80.5269 13.0605 80.2716 12.9566C79.9965 12.8465 79.7014 12.7915 79.404 12.7949C79.0896 12.7891 78.778 12.8536 78.4933 12.9835C78.2397 13.0992 78.0236 13.2805 77.8687 13.5076C77.7171 13.7389 77.6389 14.0087 77.6441 14.2831C77.6355 14.6011 77.7448 14.9114 77.9518 15.1575C78.1976 15.425 78.5184 15.6165 78.8748 15.7085L79.8809 16.0244C80.0359 16.0673 80.1776 16.1471 80.2931 16.2565C80.3873 16.3579 80.437 16.4912 80.4316 16.6278C80.4343 16.7455 80.3982 16.8609 80.3285 16.9572C80.2541 17.0534 80.1541 17.1279 80.0393 17.1728C79.8997 17.2279 79.7499 17.2544 79.5994 17.2506C79.309 17.2543 79.0252 17.1666 78.7902 17.0006C78.5436 16.8265 78.3531 16.5876 78.241 16.3119L77.438 16.6472C77.5314 16.926 77.6863 17.1815 77.8918 17.3959C78.0974 17.6097 78.3468 17.7791 78.6241 17.8929C78.9157 18.0139 79.23 18.0745 79.5471 18.0711C79.8768 18.079 80.2041 18.0135 80.5039 17.8795C80.7625 17.7631 80.9841 17.581 81.1454 17.3524C81.3025 17.1231 81.3836 16.8524 81.3777 16.5769C81.3892 16.2617 81.2795 15.9536 81.07 15.713C80.8154 15.4495 80.4922 15.258 80.1347 15.159Z" fill="white"/>
<path d="M85.6065 12.8757H84.642V17.9828H85.6065V12.8757Z" fill="white"/>
</svg>
