<svg width="21" height="18" viewBox="0 0 21 18" fill="none" xmlns="http://www.w3.org/2000/svg">
<path d="M11.9393 0H0V12.6877H1.98405C2.12096 12.6877 2.25626 12.6581 2.38069 12.6009C2.50513 12.5437 2.61576 12.4602 2.70503 12.3562L5.96829 8.5627C6.02234 8.49951 6.0894 8.44879 6.16486 8.41401C6.24032 8.37923 6.3224 8.36123 6.40546 8.36123C6.48852 8.36123 6.5706 8.37923 6.64606 8.41401C6.72152 8.44879 6.78857 8.49951 6.84262 8.5627L10.391 12.6877H12.48C12.562 12.6878 12.6424 12.6643 12.7114 12.62C12.7805 12.5757 12.8353 12.5124 12.8695 12.4377C12.9037 12.363 12.9157 12.28 12.9041 12.1987C12.8925 12.1173 12.8578 12.041 12.8042 11.9789L7.45196 5.75698C7.32215 5.6064 7.16149 5.4856 6.9809 5.40281C6.80032 5.32001 6.60405 5.27715 6.40546 5.27715C6.20686 5.27715 6.01059 5.32001 5.83001 5.40281C5.64943 5.4856 5.48876 5.6064 5.35895 5.75698L2.4804 9.10309V2.48499H11.9541C15.5482 2.48499 18.5102 5.381 18.5196 8.98181C18.5212 9.83862 18.3542 10.6873 18.0282 11.4795C17.7023 12.2716 17.2237 12.9916 16.6198 13.5984C16.0159 14.2051 15.2987 14.6867 14.5089 15.0155C13.7192 15.3444 12.8725 15.5141 12.0173 15.515H0C0 16.1741 0.261327 16.8061 0.726492 17.2722C1.19166 17.7382 1.82256 18 2.4804 18H12.0173C14.3997 17.9971 16.6837 17.0473 18.3678 15.3591C20.0519 13.6709 20.9986 11.3821 21 8.99528C20.9973 4.04282 16.8772 0 11.9393 0Z" fill="white" fill-opacity="0.6"/>
</svg>
