<svg width="100" height="26" viewBox="0 0 100 26" fill="none" xmlns="http://www.w3.org/2000/svg">
<g clip-path="url(#clip0_17_1501)">
<path d="M4.34158 17.2674H8.88442V21.7327C8.88442 24.0783 10.8108 26.0001 13.226 26.0001C15.6412 26.0001 17.5676 24.0783 17.5676 21.7327V17.2674V8.73267H8.88442H4.34158C1.95515 8.73267 0 10.6544 0 13.0001C0 15.3457 1.95515 17.2674 4.34158 17.2674Z" fill="#60663C"/>
<path d="M0 13.0001C0 15.3457 1.95515 17.2674 4.34158 17.2674H17.5676L8.88442 8.73267H4.34158C1.95515 8.73267 0 10.6544 0 13.0001Z" fill="#697042"/>
<path d="M22.1104 8.73261H17.5676V4.26739C17.5676 1.92174 15.6124 0 13.226 0C10.8396 0 8.88443 1.92174 8.88443 4.26739V8.73261V17.2674H17.5676H22.1104C24.4969 17.2674 26.452 15.3457 26.452 13C26.452 10.6543 24.4969 8.73261 22.1104 8.73261Z" fill="#60663C"/>
<path opacity="0.49" d="M8.88442 8.73267V17.2674C8.68315 16.2783 8.16562 10.9935 5.8942 8.73267H8.88442Z" fill="#555B35"/>
<path opacity="0.5" d="M17.5676 17.2673H8.88443C9.89076 17.4652 15.2674 17.9739 17.5676 20.2065V17.2673Z" fill="#4B502F"/>
<path d="M13.226 0C10.8396 0 8.88443 1.92174 8.88443 4.26739V17.2674L17.5676 8.73261V4.26739C17.5676 1.92174 15.6124 0 13.226 0Z" fill="#697042"/>
<path d="M38.7579 11.8695V9.8347H33.2662V11.8695H32.0874V7.82818C32.0874 7.26297 32.5474 6.81079 33.1225 6.81079H38.9592C39.5342 6.81079 39.9942 7.26297 39.9942 7.82818V11.8695H38.7579ZM38.7579 8.02601C38.7579 7.91296 38.6429 7.79992 38.5279 7.79992H33.4675C33.3525 7.79992 33.2375 7.91296 33.2375 8.02601V8.87383H38.7292V8.02601H38.7579Z" fill="#4B502F"/>
<path d="M48.8212 11.8695V8.59123L46.3485 11.8695H45.1697L42.697 8.61949V11.8695H41.5181V6.81079H42.697L45.8022 10.8804L48.8212 6.81079H50V11.8695H48.8212Z" fill="#4B502F"/>
<path d="M51.2939 11.8695V6.81079H59.3445V7.79992H52.5014V8.87383H59.2007V9.86297H52.5014V10.9086H59.3445V11.8695H51.2939Z" fill="#4B502F"/>
<path d="M67.9126 11.8695V11.5021C67.9126 10.3717 67.4238 9.8347 66.3887 9.8347H62.1909V11.8695H61.0121V6.81079H67.9414C68.5164 6.81079 68.9764 7.26297 68.9764 7.82818V8.81731C68.9764 9.21297 68.7177 9.52383 68.3439 9.63688C68.8614 10.0043 69.0627 10.5977 69.0627 11.3891V11.8695H67.9126ZM67.8263 8.02601C67.8263 7.91296 67.7401 7.79992 67.5963 7.79992H62.2197V8.87383H67.5963C67.7401 8.87383 67.8263 8.78905 67.8263 8.64775V8.02601Z" fill="#4B502F"/>
<path d="M79.3847 11.8695L76.7683 10.0043L74.2381 11.8695H73.0592V6.81079H74.2381V10.5977L79.3847 6.81079H81.0811L77.6883 9.29775L81.2248 11.8695H79.3847Z" fill="#4B502F"/>
<path d="M89.3329 11.8695V9.8347H83.8413V11.8695H82.6624V7.82818C82.6624 7.26297 83.1225 6.81079 83.6975 6.81079H89.5342C90.1093 6.81079 90.5693 7.26297 90.5693 7.82818V11.8695H89.3329ZM89.3329 8.02601C89.3329 7.91296 89.2179 7.79992 89.1029 7.79992H84.0425C83.9275 7.79992 83.8125 7.91296 83.8125 8.02601V8.87383H89.3042V8.02601H89.3329Z" fill="#4B502F"/>
<path d="M98.7924 11.8695L93.1282 8.08253V11.8695H91.9494V6.81079H93.1282L98.7924 10.5977V6.81079H99.9713V11.8695H98.7924Z" fill="#4B502F"/>
<path d="M42.2944 22.0151V18.9065H33.87V22.0151H32.0587V15.7978C32.0587 14.9217 32.7487 14.2434 33.64 14.2434H42.5532C43.4158 14.2434 44.1346 14.9217 44.1346 15.7978V21.9869H42.2944V22.0151ZM42.2944 16.1086C42.2944 15.9108 42.1507 15.7695 41.9494 15.7695H34.2151C34.0138 15.7695 33.87 15.9108 33.87 16.1086V17.3804H42.2944V16.1086Z" fill="#4B502F"/>
<path d="M56.8143 18.8782H47.9011V21.9869H46.0897V14.2434H56.8143C57.6768 14.2434 58.3956 14.9217 58.3956 15.7978V17.3238C58.3956 18.1717 57.6768 18.8782 56.8143 18.8782ZM56.5555 16.1086C56.5555 15.9108 56.4117 15.7695 56.2105 15.7695H47.8724V17.3804H56.2105C56.4117 17.3804 56.5555 17.2391 56.5555 17.0412V16.1086Z" fill="#4B502F"/>
<path d="M66.705 15.7412V21.9869H64.8936V15.7412H59.8907V14.2434H71.7079V15.7412H66.705Z" fill="#4B502F"/>
<path d="M73.3755 22.0151V14.2434H85.6814V15.7412H75.1869V17.3521H85.4226V18.8499H75.1869V20.4608H85.6814V21.9586H73.3755V22.0151Z" fill="#4B502F"/>
<path d="M97.1248 22.0151L93.1282 19.1325L89.2467 22.0151H87.4353V14.2434H89.2467V20.0651L97.1248 14.2434H99.7412L94.5658 18.0586L100 21.9869H97.1248V22.0151Z" fill="#4B502F"/>
<path d="M71.6216 6.81079H70.4428V7.68688H71.6216V6.81079Z" fill="#4B502F"/>
<path d="M71.6216 8.30859H70.4428V11.8695H71.6216V8.30859Z" fill="#4B502F"/>
</g>
<defs>
<clipPath id="clip0_17_1501">
<rect width="100" height="26" fill="white"/>
</clipPath>
</defs>
</svg>
